<?xml version="1.0" encoding="utf-8"?>
<!-- Generator: Adobe Illustrator 23.0.0, SVG Export Plug-In . SVG Version: 6.00 Build 0)  -->
<svg version="1.1" id="Layer_1" xmlns="http://www.w3.org/2000/svg" xmlns:xlink="http://www.w3.org/1999/xlink" x="0px" y="0px"
	 width="258.4px" height="27.8px" viewBox="0 0 258.4 27.8" style="enable-background:new 0 0 258.4 27.8;" xml:space="preserve">
<style type="text/css">
	.st0{fill-rule:evenodd;clip-rule:evenodd;fill:#1775FC;}
	.st1{fill:#002F54;}
	.st2{fill:#2CDE80;}
</style>
<title>Blinkist Magazine</title>
<path class="st0" d="M252,10.9c1.8-0.1,3.4,1.3,3.5,3.1c0,0.1,0,0.2,0,0.2h-7.4C248.4,12.4,250.1,10.9,252,10.9z M258.4,14.7
	c0.1-3.4-2.6-6.2-6-6.3c-0.1,0-0.2,0-0.4,0c-3.9-0.1-7,3-7.1,6.9c0,0.1,0,0.2,0,0.3c0,3.9,3.1,7.1,7,7.1c0.1,0,0.2,0,0.3,0
	c2,0,4-0.8,5.5-2.2l-1.4-2c-1.1,1-2.5,1.6-4,1.6c-2.2,0.2-4.1-1.4-4.5-3.6h10.2C258.3,16,258.4,15.4,258.4,14.7L258.4,14.7z
	 M236.7,8.5c-1.5,0-3,0.6-4.1,1.7V8.8h-2.7v13.7h2.9v-8.2c-0.1-1.7,1.2-3.1,2.8-3.2c0.1,0,0.2,0,0.3,0c1.6-0.1,3,1.2,3,2.8
	c0,0.1,0,0.2,0,0.3v8.2h2.9v-8.6C241.8,10.7,239.9,8.5,236.7,8.5z M225.6,8.8h-2.9v13.7h2.9V8.8z M224.2,1.8c-1.1,0-2,0.9-2,2
	c0,1.1,0.9,1.9,2,1.9c1.1,0,2-0.9,2-1.9C226.2,2.7,225.3,1.7,224.2,1.8C224.2,1.7,224.2,1.7,224.2,1.8L224.2,1.8z M212.7,20
	l7.2-10.4V8.8H209v2.5h6.5l-7.2,10.3v0.8H220v-2.5L212.7,20z M199.3,20.6c-1.3,0-2.4-0.6-2.4-1.8s0.9-1.7,2.4-1.7h3.5v0.2
	C202.7,19.1,201.2,20.6,199.3,20.6C199.3,20.5,199.3,20.5,199.3,20.6L199.3,20.6z M200.2,8.6c-2.3-0.1-4.5,1-5.8,2.9l1.7,1.7
	c0.9-1.2,2.3-2,3.8-2c1.5-0.2,2.8,0.9,2.9,2.3c0,0.1,0,0.3,0,0.5v0.9h-3.9c-3.1,0-5.1,1.5-5.1,3.9s1.9,4,4.8,4
	c1.7,0.1,3.3-0.6,4.3-1.9v1.5h2.7v-8.3C205.8,10.4,203.4,8.5,200.2,8.6L200.2,8.6z M183.6,19.6c-2.3,0.1-4.1-1.7-4.2-4
	c0-0.1,0-0.2,0-0.3c-0.1-2.2,1.6-4.1,3.9-4.2c0.1,0,0.2,0,0.3,0c2.1-0.1,4,1.5,4.1,3.6c0,0.2,0,0.4,0,0.6c0.2,2.2-1.5,4.1-3.7,4.3
	C183.9,19.6,183.8,19.6,183.6,19.6z M188,8.8v2c-1.2-1.5-3-2.3-4.9-2.3c-3.6-0.1-6.6,2.8-6.7,6.4c0,0.1,0,0.3,0,0.4
	c-0.2,3.6,2.6,6.7,6.2,6.8c0.2,0,0.3,0,0.5,0c1.7,0.1,3.4-0.6,4.6-1.9v1c0,2.6-1.7,3.9-4.1,3.9c-1.8-0.1-3.5-0.8-4.8-2l-1.6,2
	c1.8,1.7,4.1,2.6,6.6,2.6c4.1,0,6.9-2.4,6.9-6.8V8.8H188z M166.6,20.5c-1.3,0-2.4-0.6-2.4-1.8s0.9-1.7,2.4-1.7h3.5v0.2
	C170.1,19.1,168.6,20.6,166.6,20.5C166.7,20.5,166.7,20.5,166.6,20.5z M167.5,8.5c-2.3-0.1-4.5,1-5.8,2.9l1.7,1.7
	c0.9-1.2,2.3-2,3.8-2c1.4-0.2,2.8,0.9,2.9,2.3c0,0.2,0,0.3,0,0.5v0.9h-3.9c-3.1,0-5,1.5-5,3.9s1.9,4,4.8,4c1.7,0.1,3.3-0.6,4.4-1.8
	v1.5h2.7v-8.3C173.1,10.4,170.8,8.5,167.5,8.5L167.5,8.5z M157,3.8L149.3,14l-7.7-10.2h-1v18.7h3V10.9l5.3,6.9h1l5.2-6.9v11.5h3V3.8
	H157z"/>
<path class="st1" d="M17.3,16.8c-2,2-5.2,2-7.2,0s-2-5.2,0-7.2l0,0L13.6,6l3.6,3.6C19.2,11.6,19.2,14.8,17.3,16.8z"/>
<path class="st2" d="M27.3,12.3c0,7.5-6.1,13.7-13.6,13.7S0,19.8,0,12.3C0,7.1,3,2.3,7.7,0l6,6L10,9.6c-2,2-2,5.2,0,7.2s5.2,2,7.2,0
	s2-5.2,0-7.2c0,0,0,0,0,0L13.6,6l6-6C24.3,2.3,27.3,7.1,27.3,12.3z"/>
<path class="st1" d="M48.6,16.8c0,3.3-2.8,5.6-6.4,5.6h-8.8v-19h6.8c3.6,0,6.4,2.2,6.4,5.6c0,1.2-0.4,2.3-1.2,3.2
	C47.4,12.9,48.7,14.8,48.6,16.8z M38.1,7.6V11h1.8c0.9,0.1,1.8-0.6,1.9-1.5c0.1-0.9-0.6-1.8-1.5-1.9c-0.1,0-0.2,0-0.4,0L38.1,7.6z
	 M43.8,16.6c0-1.1-0.7-1.7-1.9-1.7h-3.8v3.3h3.8C43,18.3,43.8,17.7,43.8,16.6L43.8,16.6z"/>
<path class="st1" d="M55.9,22.4H51V0.9h4.9L55.9,22.4z"/>
<path class="st1" d="M64.6,3c0,1.7-1.4,3-3,3c-1.7,0-3-1.4-3-3s1.4-3,3-3C63.3,0,64.6,1.3,64.6,3z M64.1,22.5h-4.9V8.1h4.9
	L64.1,22.5z"/>
<path class="st1" d="M81.3,13.6v8.9h-4.9v-8.1c0.1-1.1-0.8-2.1-1.9-2.1c-0.1,0-0.2,0-0.2,0c-1.1,0-2,0.8-2.1,1.9c0,0.1,0,0.1,0,0.2
	v8.1h-4.9V8.1h4.5v1.2c1.1-1,2.5-1.5,4-1.5C79.2,7.7,81.3,10.1,81.3,13.6z"/>
<path class="st1" d="M94.5,22.4l-5.1-7.6v7.6h-4.9V0.9h4.9v13l4.5-5.8h5.7l-4.9,6.4l5.3,8L94.5,22.4z"/>
<path class="st1" d="M107,3c0,1.7-1.3,3-3,3s-3-1.3-3-3s1.3-3,3-3S107,1.3,107,3z M106.5,22.5h-4.9V8.1h4.9V22.5z"/>
<path class="st1" d="M120.3,9.8l-2.3,3c-0.8-0.7-1.9-1.2-3-1.2c-0.6,0-1,0.1-1,0.5s0.3,0.5,1,0.8l1.4,0.6c2.6,1,4.2,2.1,4.2,4.5
	c0,3-2.5,4.8-5.9,4.8c-2.4,0.1-4.7-0.9-6.3-2.8l2.3-2.9c1,1.1,2.5,1.7,4,1.8c0.7,0,1.3-0.1,1.3-0.6c0-0.3-0.3-0.5-0.8-0.7l-1.6-0.7
	c-2.6-1.1-4.2-2.2-4.2-4.6c0-2.9,2.3-4.5,5.6-4.5C116.9,7.6,118.9,8.4,120.3,9.8z"/>
<path class="st1" d="M132.9,18.3v4.1c-0.9,0.2-1.9,0.3-2.9,0.3c-4,0-6.3-1.9-6.3-5.8v-4.7h-2.2V8.1h2.2V4.6h4.9v3.4h3.9v4.1h-3.9
	v4.2c0,1.4,0.7,1.9,2.5,1.9C131.5,18.4,132.1,18.3,132.9,18.3z"/>
</svg>
